<mxfile host="5032809e-5819-4025-a06d-5a05141d252e" modified="2020-09-16T17:49:04.117Z" agent="5.0 (Windows NT 10.0; Win64; x64) AppleWebKit/537.36 (KHTML, like Gecko) Code/1.49.0 Chrome/83.0.4103.122 Electron/9.2.1 Safari/537.36" etag="HgX6Sk8g_xsGjfW8xGwl" version="13.1.3">
    <diagram id="trn8gXdmfz10BkHetD-l" name="第 2 页">
        <mxGraphModel dx="561" dy="480" grid="0" gridSize="10" guides="1" tooltips="1" connect="1" arrows="1" fold="1" page="1" pageScale="1" pageWidth="827" pageHeight="1169" background="#333333" math="0" shadow="0">
            <root>
                <mxCell id="oDDhhZ-fotDQM3jQQCFt-0"/>
                <mxCell id="oDDhhZ-fotDQM3jQQCFt-1" parent="oDDhhZ-fotDQM3jQQCFt-0"/>
                <mxCell id="HfRxdsHFkK1CopTm8-uA-8" value="facade" style="rounded=1;whiteSpace=wrap;html=1;dashed=1;strokeColor=#FFFF66;strokeWidth=2;fillColor=#333333;fontSize=15;" parent="oDDhhZ-fotDQM3jQQCFt-1" vertex="1">
                    <mxGeometry x="173" y="170" width="120" height="35" as="geometry"/>
                </mxCell>
                <mxCell id="HfRxdsHFkK1CopTm8-uA-9" value="system" style="rounded=1;whiteSpace=wrap;html=1;dashed=1;strokeColor=#FFFF66;strokeWidth=2;fillColor=#333333;fontSize=15;" parent="oDDhhZ-fotDQM3jQQCFt-1" vertex="1">
                    <mxGeometry x="419" y="108" width="120" height="35" as="geometry"/>
                </mxCell>
                <mxCell id="HfRxdsHFkK1CopTm8-uA-10" value="system" style="rounded=1;whiteSpace=wrap;html=1;dashed=1;strokeColor=#FFFF66;strokeWidth=2;fillColor=#333333;fontSize=15;" parent="oDDhhZ-fotDQM3jQQCFt-1" vertex="1">
                    <mxGeometry x="419" y="178" width="120" height="35" as="geometry"/>
                </mxCell>
                <mxCell id="HfRxdsHFkK1CopTm8-uA-11" value="system" style="rounded=1;whiteSpace=wrap;html=1;dashed=1;strokeColor=#FFFF66;strokeWidth=2;fillColor=#333333;fontSize=15;" parent="oDDhhZ-fotDQM3jQQCFt-1" vertex="1">
                    <mxGeometry x="419" y="260" width="120" height="35" as="geometry"/>
                </mxCell>
                <mxCell id="HfRxdsHFkK1CopTm8-uA-12" value="" style="endArrow=open;html=1;strokeColor=#FFFF66;strokeWidth=2;fontSize=15;endFill=0;" parent="oDDhhZ-fotDQM3jQQCFt-1" edge="1">
                    <mxGeometry width="50" height="50" relative="1" as="geometry">
                        <mxPoint x="295.9999999999999" y="193.48000000000002" as="sourcePoint"/>
                        <mxPoint x="413" y="130" as="targetPoint"/>
                        <Array as="points"/>
                    </mxGeometry>
                </mxCell>
                <mxCell id="HfRxdsHFkK1CopTm8-uA-13" value="" style="endArrow=open;html=1;strokeColor=#FFFF66;strokeWidth=2;fontSize=15;endFill=0;entryX=0;entryY=0.5;entryDx=0;entryDy=0;" parent="oDDhhZ-fotDQM3jQQCFt-1" target="HfRxdsHFkK1CopTm8-uA-10" edge="1">
                    <mxGeometry width="50" height="50" relative="1" as="geometry">
                        <mxPoint x="300" y="196" as="sourcePoint"/>
                        <mxPoint x="423" y="139.9999999999999" as="targetPoint"/>
                        <Array as="points"/>
                    </mxGeometry>
                </mxCell>
                <mxCell id="HfRxdsHFkK1CopTm8-uA-14" value="" style="endArrow=open;html=1;strokeColor=#FFFF66;strokeWidth=2;fontSize=15;endFill=0;" parent="oDDhhZ-fotDQM3jQQCFt-1" edge="1">
                    <mxGeometry width="50" height="50" relative="1" as="geometry">
                        <mxPoint x="298" y="201" as="sourcePoint"/>
                        <mxPoint x="414" y="278" as="targetPoint"/>
                        <Array as="points"/>
                    </mxGeometry>
                </mxCell>
                <mxCell id="HfRxdsHFkK1CopTm8-uA-15" value="client" style="text;html=1;strokeColor=none;fillColor=none;align=center;verticalAlign=middle;whiteSpace=wrap;rounded=0;dashed=1;fontSize=15;" parent="oDDhhZ-fotDQM3jQQCFt-1" vertex="1">
                    <mxGeometry x="196.5" y="283" width="73" height="38" as="geometry"/>
                </mxCell>
                <mxCell id="HfRxdsHFkK1CopTm8-uA-17" value="" style="endArrow=classic;html=1;strokeColor=#FFFF66;strokeWidth=2;fontSize=15;dashed=1;" parent="oDDhhZ-fotDQM3jQQCFt-1" edge="1">
                    <mxGeometry width="50" height="50" relative="1" as="geometry">
                        <mxPoint x="232.76" y="287" as="sourcePoint"/>
                        <mxPoint x="232.76" y="213" as="targetPoint"/>
                    </mxGeometry>
                </mxCell>
                <mxCell id="g9TPAfyEbbzDcXti1dBH-0" value="" style="rounded=1;whiteSpace=wrap;html=1;dashed=1;strokeColor=#FFFF66;strokeWidth=2;fillColor=#333333;fontSize=15;" parent="oDDhhZ-fotDQM3jQQCFt-1" vertex="1">
                    <mxGeometry x="136" y="510" width="205" height="311" as="geometry"/>
                </mxCell>
                <mxCell id="g9TPAfyEbbzDcXti1dBH-1" value="" style="rounded=1;whiteSpace=wrap;html=1;dashed=1;strokeColor=#FFFF66;strokeWidth=2;fillColor=#333333;fontSize=15;" parent="oDDhhZ-fotDQM3jQQCFt-1" vertex="1">
                    <mxGeometry x="510" y="570" width="196" height="235" as="geometry"/>
                </mxCell>
                <mxCell id="g9TPAfyEbbzDcXti1dBH-8" value="system" style="text;html=1;strokeColor=none;fillColor=none;align=center;verticalAlign=middle;whiteSpace=wrap;rounded=0;dashed=1;fontSize=15;" parent="oDDhhZ-fotDQM3jQQCFt-1" vertex="1">
                    <mxGeometry x="526" y="544" width="40" height="20" as="geometry"/>
                </mxCell>
                <mxCell id="g9TPAfyEbbzDcXti1dBH-13" value="facade" style="text;html=1;strokeColor=none;fillColor=none;align=center;verticalAlign=middle;whiteSpace=wrap;rounded=0;dashed=1;fontSize=15;" parent="oDDhhZ-fotDQM3jQQCFt-1" vertex="1">
                    <mxGeometry x="149" y="472" width="40" height="20" as="geometry"/>
                </mxCell>
                <mxCell id="g9TPAfyEbbzDcXti1dBH-14" value="" style="endArrow=open;html=1;strokeColor=#FFFF66;strokeWidth=2;fontSize=15;endFill=0;entryX=0.002;entryY=0.832;entryDx=0;entryDy=0;entryPerimeter=0;" parent="oDDhhZ-fotDQM3jQQCFt-1" target="g9TPAfyEbbzDcXti1dBH-1" edge="1">
                    <mxGeometry width="50" height="50" relative="1" as="geometry">
                        <mxPoint x="204" y="754.0000000000002" as="sourcePoint"/>
                        <mxPoint x="467" y="642" as="targetPoint"/>
                        <Array as="points"/>
                    </mxGeometry>
                </mxCell>
                <mxCell id="g9TPAfyEbbzDcXti1dBH-19" value="" style="endArrow=open;html=1;strokeColor=#FFFF66;strokeWidth=2;fontSize=15;endFill=0;exitX=0.306;exitY=0.294;exitDx=0;exitDy=0;exitPerimeter=0;" parent="oDDhhZ-fotDQM3jQQCFt-1" source="g9TPAfyEbbzDcXti1dBH-16" edge="1">
                    <mxGeometry width="50" height="50" relative="1" as="geometry">
                        <mxPoint x="371" y="858" as="sourcePoint"/>
                        <mxPoint x="505" y="622" as="targetPoint"/>
                        <Array as="points"/>
                    </mxGeometry>
                </mxCell>
                <mxCell id="g9TPAfyEbbzDcXti1dBH-2" value="CPU" style="swimlane;fontStyle=1;align=center;verticalAlign=top;childLayout=stackLayout;horizontal=1;startSize=25;horizontalStack=0;resizeParent=1;resizeParentMax=0;resizeLast=0;collapsible=1;marginBottom=0;fillColor=#333333;" parent="oDDhhZ-fotDQM3jQQCFt-1" vertex="1">
                    <mxGeometry x="529" y="599" width="160" height="74" as="geometry"/>
                </mxCell>
                <mxCell id="g9TPAfyEbbzDcXti1dBH-3" value="" style="line;strokeWidth=1;fillColor=none;align=left;verticalAlign=middle;spacingTop=-1;spacingLeft=3;spacingRight=3;rotatable=0;labelPosition=right;points=[];portConstraint=eastwest;" parent="g9TPAfyEbbzDcXti1dBH-2" vertex="1">
                    <mxGeometry y="25" width="160" height="14" as="geometry"/>
                </mxCell>
                <mxCell id="g9TPAfyEbbzDcXti1dBH-4" value="+Boot&#10;+shotdown" style="text;strokeColor=none;fillColor=none;align=left;verticalAlign=top;spacingLeft=4;spacingRight=4;overflow=hidden;rotatable=0;points=[[0,0.5],[1,0.5]];portConstraint=eastwest;" parent="g9TPAfyEbbzDcXti1dBH-2" vertex="1">
                    <mxGeometry y="39" width="160" height="35" as="geometry"/>
                </mxCell>
                <mxCell id="g9TPAfyEbbzDcXti1dBH-5" value="Power" style="swimlane;fontStyle=1;align=center;verticalAlign=top;childLayout=stackLayout;horizontal=1;startSize=25;horizontalStack=0;resizeParent=1;resizeParentMax=0;resizeLast=0;collapsible=1;marginBottom=0;fillColor=#333333;" parent="oDDhhZ-fotDQM3jQQCFt-1" vertex="1">
                    <mxGeometry x="529" y="707" width="160" height="74" as="geometry"/>
                </mxCell>
                <mxCell id="g9TPAfyEbbzDcXti1dBH-6" value="" style="line;strokeWidth=1;fillColor=none;align=left;verticalAlign=middle;spacingTop=-1;spacingLeft=3;spacingRight=3;rotatable=0;labelPosition=right;points=[];portConstraint=eastwest;" parent="g9TPAfyEbbzDcXti1dBH-5" vertex="1">
                    <mxGeometry y="25" width="160" height="14" as="geometry"/>
                </mxCell>
                <mxCell id="g9TPAfyEbbzDcXti1dBH-7" value="+Boot&#10;+shotdown" style="text;strokeColor=none;fillColor=none;align=left;verticalAlign=top;spacingLeft=4;spacingRight=4;overflow=hidden;rotatable=0;points=[[0,0.5],[1,0.5]];portConstraint=eastwest;" parent="g9TPAfyEbbzDcXti1dBH-5" vertex="1">
                    <mxGeometry y="39" width="160" height="35" as="geometry"/>
                </mxCell>
                <mxCell id="g9TPAfyEbbzDcXti1dBH-9" value="&lt;&lt;interface&gt;&gt;&#10;computer" style="swimlane;fontStyle=1;align=center;verticalAlign=top;childLayout=stackLayout;horizontal=1;startSize=37;horizontalStack=0;resizeParent=1;resizeParentMax=0;resizeLast=0;collapsible=1;marginBottom=0;fillColor=#333333;" parent="oDDhhZ-fotDQM3jQQCFt-1" vertex="1">
                    <mxGeometry x="161" y="534" width="160" height="106" as="geometry"/>
                </mxCell>
                <mxCell id="g9TPAfyEbbzDcXti1dBH-10" value="+ field: type" style="text;strokeColor=none;fillColor=none;align=left;verticalAlign=top;spacingLeft=4;spacingRight=4;overflow=hidden;rotatable=0;points=[[0,0.5],[1,0.5]];portConstraint=eastwest;" parent="g9TPAfyEbbzDcXti1dBH-9" vertex="1">
                    <mxGeometry y="37" width="160" height="26" as="geometry"/>
                </mxCell>
                <mxCell id="g9TPAfyEbbzDcXti1dBH-11" value="" style="line;strokeWidth=1;fillColor=none;align=left;verticalAlign=middle;spacingTop=-1;spacingLeft=3;spacingRight=3;rotatable=0;labelPosition=right;points=[];portConstraint=eastwest;" parent="g9TPAfyEbbzDcXti1dBH-9" vertex="1">
                    <mxGeometry y="63" width="160" height="8" as="geometry"/>
                </mxCell>
                <mxCell id="g9TPAfyEbbzDcXti1dBH-12" value="+Boot&#10;+shotdown" style="text;strokeColor=none;fillColor=none;align=left;verticalAlign=top;spacingLeft=4;spacingRight=4;overflow=hidden;rotatable=0;points=[[0,0.5],[1,0.5]];portConstraint=eastwest;" parent="g9TPAfyEbbzDcXti1dBH-9" vertex="1">
                    <mxGeometry y="71" width="160" height="35" as="geometry"/>
                </mxCell>
                <mxCell id="g9TPAfyEbbzDcXti1dBH-15" value="deskcomputer" style="swimlane;fontStyle=1;align=center;verticalAlign=top;childLayout=stackLayout;horizontal=1;startSize=25;horizontalStack=0;resizeParent=1;resizeParentMax=0;resizeLast=0;collapsible=1;marginBottom=0;fillColor=#333333;" parent="oDDhhZ-fotDQM3jQQCFt-1" vertex="1">
                    <mxGeometry x="154" y="697" width="160" height="108" as="geometry"/>
                </mxCell>
                <mxCell id="g9TPAfyEbbzDcXti1dBH-16" value="+CPU&#10;+power" style="text;strokeColor=none;fillColor=none;align=left;verticalAlign=top;spacingLeft=4;spacingRight=4;overflow=hidden;rotatable=0;points=[[0,0.5],[1,0.5]];portConstraint=eastwest;" parent="g9TPAfyEbbzDcXti1dBH-15" vertex="1">
                    <mxGeometry y="25" width="160" height="34" as="geometry"/>
                </mxCell>
                <mxCell id="g9TPAfyEbbzDcXti1dBH-17" value="" style="line;strokeWidth=1;fillColor=none;align=left;verticalAlign=middle;spacingTop=-1;spacingLeft=3;spacingRight=3;rotatable=0;labelPosition=right;points=[];portConstraint=eastwest;" parent="g9TPAfyEbbzDcXti1dBH-15" vertex="1">
                    <mxGeometry y="59" width="160" height="14" as="geometry"/>
                </mxCell>
                <mxCell id="g9TPAfyEbbzDcXti1dBH-18" value="+Boot&#10;+shotdown" style="text;strokeColor=none;fillColor=none;align=left;verticalAlign=top;spacingLeft=4;spacingRight=4;overflow=hidden;rotatable=0;points=[[0,0.5],[1,0.5]];portConstraint=eastwest;" parent="g9TPAfyEbbzDcXti1dBH-15" vertex="1">
                    <mxGeometry y="73" width="160" height="35" as="geometry"/>
                </mxCell>
                <mxCell id="46XkXmEAlNjn_4T0TYDh-0" value="" style="rounded=1;whiteSpace=wrap;html=1;fillColor=#333333;fontSize=15;dashed=1;strokeColor=#FFFF66;strokeWidth=2;" parent="oDDhhZ-fotDQM3jQQCFt-1" vertex="1">
                    <mxGeometry x="152" y="1710" width="432" height="108" as="geometry"/>
                </mxCell>
                <mxCell id="46XkXmEAlNjn_4T0TYDh-1" value="" style="rounded=1;whiteSpace=wrap;html=1;fillColor=#333333;dashed=1;strokeColor=#FFFF66;strokeWidth=2;" parent="oDDhhZ-fotDQM3jQQCFt-1" vertex="1">
                    <mxGeometry x="158" y="1313" width="429" height="331" as="geometry"/>
                </mxCell>
                <mxCell id="46XkXmEAlNjn_4T0TYDh-17" value="facade" style="text;align=center;fontStyle=1;verticalAlign=middle;spacingLeft=3;spacingRight=3;strokeColor=none;rotatable=0;points=[[0,0.5],[1,0.5]];portConstraint=eastwest;fillColor=#333333;fontSize=15;" parent="oDDhhZ-fotDQM3jQQCFt-1" vertex="1">
                    <mxGeometry x="170" y="1302" width="80" height="26" as="geometry"/>
                </mxCell>
                <mxCell id="46XkXmEAlNjn_4T0TYDh-18" value="system" style="text;align=center;fontStyle=1;verticalAlign=middle;spacingLeft=3;spacingRight=3;strokeColor=none;rotatable=0;points=[[0,0.5],[1,0.5]];portConstraint=eastwest;fillColor=#333333;fontSize=15;" parent="oDDhhZ-fotDQM3jQQCFt-1" vertex="1">
                    <mxGeometry x="143" y="1698" width="80" height="26" as="geometry"/>
                </mxCell>
                <mxCell id="46XkXmEAlNjn_4T0TYDh-19" value="" style="shape=partialRectangle;whiteSpace=wrap;html=1;bottom=1;right=1;left=1;top=0;fillColor=none;routingCenterX=-0.5;fontSize=15;strokeColor=#FFFF66;strokeWidth=2;direction=west;" parent="oDDhhZ-fotDQM3jQQCFt-1" vertex="1">
                    <mxGeometry x="245" y="1689" width="281" height="60" as="geometry"/>
                </mxCell>
                <mxCell id="46XkXmEAlNjn_4T0TYDh-20" value="" style="endArrow=none;endFill=0;endSize=12;html=1;fontSize=15;strokeColor=#FFFF66;strokeWidth=2;" parent="oDDhhZ-fotDQM3jQQCFt-1" edge="1">
                    <mxGeometry width="160" relative="1" as="geometry">
                        <mxPoint x="378" y="1683" as="sourcePoint"/>
                        <mxPoint x="378" y="1641" as="targetPoint"/>
                    </mxGeometry>
                </mxCell>
                <mxCell id="46XkXmEAlNjn_4T0TYDh-2" value="deskcomputer" style="swimlane;fontStyle=1;align=center;verticalAlign=top;childLayout=stackLayout;horizontal=1;startSize=25;horizontalStack=0;resizeParent=1;resizeParentMax=0;resizeLast=0;collapsible=1;marginBottom=0;fillColor=#333333;" parent="oDDhhZ-fotDQM3jQQCFt-1" vertex="1">
                    <mxGeometry x="182" y="1492" width="160" height="108" as="geometry"/>
                </mxCell>
                <mxCell id="46XkXmEAlNjn_4T0TYDh-3" value="+CPU&#10;+power" style="text;strokeColor=none;fillColor=none;align=left;verticalAlign=top;spacingLeft=4;spacingRight=4;overflow=hidden;rotatable=0;points=[[0,0.5],[1,0.5]];portConstraint=eastwest;" parent="46XkXmEAlNjn_4T0TYDh-2" vertex="1">
                    <mxGeometry y="25" width="160" height="34" as="geometry"/>
                </mxCell>
                <mxCell id="46XkXmEAlNjn_4T0TYDh-4" value="" style="line;strokeWidth=1;fillColor=none;align=left;verticalAlign=middle;spacingTop=-1;spacingLeft=3;spacingRight=3;rotatable=0;labelPosition=right;points=[];portConstraint=eastwest;" parent="46XkXmEAlNjn_4T0TYDh-2" vertex="1">
                    <mxGeometry y="59" width="160" height="14" as="geometry"/>
                </mxCell>
                <mxCell id="46XkXmEAlNjn_4T0TYDh-5" value="+Boot&#10;+shotdown" style="text;strokeColor=none;fillColor=none;align=left;verticalAlign=top;spacingLeft=4;spacingRight=4;overflow=hidden;rotatable=0;points=[[0,0.5],[1,0.5]];portConstraint=eastwest;" parent="46XkXmEAlNjn_4T0TYDh-2" vertex="1">
                    <mxGeometry y="73" width="160" height="35" as="geometry"/>
                </mxCell>
                <mxCell id="46XkXmEAlNjn_4T0TYDh-6" value="deskcomputer" style="swimlane;fontStyle=1;align=center;verticalAlign=top;childLayout=stackLayout;horizontal=1;startSize=25;horizontalStack=0;resizeParent=1;resizeParentMax=0;resizeLast=0;collapsible=1;marginBottom=0;fillColor=#333333;" parent="oDDhhZ-fotDQM3jQQCFt-1" vertex="1">
                    <mxGeometry x="397" y="1487" width="160" height="108" as="geometry"/>
                </mxCell>
                <mxCell id="46XkXmEAlNjn_4T0TYDh-7" value="+CPU&#10;+power" style="text;strokeColor=none;fillColor=none;align=left;verticalAlign=top;spacingLeft=4;spacingRight=4;overflow=hidden;rotatable=0;points=[[0,0.5],[1,0.5]];portConstraint=eastwest;" parent="46XkXmEAlNjn_4T0TYDh-6" vertex="1">
                    <mxGeometry y="25" width="160" height="34" as="geometry"/>
                </mxCell>
                <mxCell id="46XkXmEAlNjn_4T0TYDh-8" value="" style="line;strokeWidth=1;fillColor=none;align=left;verticalAlign=middle;spacingTop=-1;spacingLeft=3;spacingRight=3;rotatable=0;labelPosition=right;points=[];portConstraint=eastwest;" parent="46XkXmEAlNjn_4T0TYDh-6" vertex="1">
                    <mxGeometry y="59" width="160" height="14" as="geometry"/>
                </mxCell>
                <mxCell id="46XkXmEAlNjn_4T0TYDh-9" value="+Boot&#10;+shotdown" style="text;strokeColor=none;fillColor=none;align=left;verticalAlign=top;spacingLeft=4;spacingRight=4;overflow=hidden;rotatable=0;points=[[0,0.5],[1,0.5]];portConstraint=eastwest;" parent="46XkXmEAlNjn_4T0TYDh-6" vertex="1">
                    <mxGeometry y="73" width="160" height="35" as="geometry"/>
                </mxCell>
                <mxCell id="46XkXmEAlNjn_4T0TYDh-10" value="&lt;&lt;interface&gt;&gt;&#10;computer" style="swimlane;fontStyle=1;align=center;verticalAlign=top;childLayout=stackLayout;horizontal=1;startSize=37;horizontalStack=0;resizeParent=1;resizeParentMax=0;resizeLast=0;collapsible=1;marginBottom=0;fillColor=#333333;" parent="oDDhhZ-fotDQM3jQQCFt-1" vertex="1">
                    <mxGeometry x="296" y="1337" width="160" height="106" as="geometry"/>
                </mxCell>
                <mxCell id="46XkXmEAlNjn_4T0TYDh-11" value="+ field: type" style="text;strokeColor=none;fillColor=none;align=left;verticalAlign=top;spacingLeft=4;spacingRight=4;overflow=hidden;rotatable=0;points=[[0,0.5],[1,0.5]];portConstraint=eastwest;" parent="46XkXmEAlNjn_4T0TYDh-10" vertex="1">
                    <mxGeometry y="37" width="160" height="26" as="geometry"/>
                </mxCell>
                <mxCell id="46XkXmEAlNjn_4T0TYDh-12" value="" style="line;strokeWidth=1;fillColor=none;align=left;verticalAlign=middle;spacingTop=-1;spacingLeft=3;spacingRight=3;rotatable=0;labelPosition=right;points=[];portConstraint=eastwest;" parent="46XkXmEAlNjn_4T0TYDh-10" vertex="1">
                    <mxGeometry y="63" width="160" height="8" as="geometry"/>
                </mxCell>
                <mxCell id="46XkXmEAlNjn_4T0TYDh-13" value="+Boot&#10;+shotdown" style="text;strokeColor=none;fillColor=none;align=left;verticalAlign=top;spacingLeft=4;spacingRight=4;overflow=hidden;rotatable=0;points=[[0,0.5],[1,0.5]];portConstraint=eastwest;" parent="46XkXmEAlNjn_4T0TYDh-10" vertex="1">
                    <mxGeometry y="71" width="160" height="35" as="geometry"/>
                </mxCell>
                <mxCell id="46XkXmEAlNjn_4T0TYDh-14" value="CPU" style="swimlane;fontStyle=1;align=center;verticalAlign=top;childLayout=stackLayout;horizontal=1;startSize=25;horizontalStack=0;resizeParent=1;resizeParentMax=0;resizeLast=0;collapsible=1;marginBottom=0;fillColor=#333333;" parent="oDDhhZ-fotDQM3jQQCFt-1" vertex="1">
                    <mxGeometry x="194" y="1734" width="160" height="74" as="geometry"/>
                </mxCell>
                <mxCell id="46XkXmEAlNjn_4T0TYDh-15" value="" style="line;strokeWidth=1;fillColor=none;align=left;verticalAlign=middle;spacingTop=-1;spacingLeft=3;spacingRight=3;rotatable=0;labelPosition=right;points=[];portConstraint=eastwest;" parent="46XkXmEAlNjn_4T0TYDh-14" vertex="1">
                    <mxGeometry y="25" width="160" height="14" as="geometry"/>
                </mxCell>
                <mxCell id="46XkXmEAlNjn_4T0TYDh-16" value="+Boot&#10;+shotdown" style="text;strokeColor=none;fillColor=none;align=left;verticalAlign=top;spacingLeft=4;spacingRight=4;overflow=hidden;rotatable=0;points=[[0,0.5],[1,0.5]];portConstraint=eastwest;" parent="46XkXmEAlNjn_4T0TYDh-14" vertex="1">
                    <mxGeometry y="39" width="160" height="35" as="geometry"/>
                </mxCell>
                <mxCell id="46XkXmEAlNjn_4T0TYDh-21" value="Power" style="swimlane;fontStyle=1;align=center;verticalAlign=top;childLayout=stackLayout;horizontal=1;startSize=25;horizontalStack=0;resizeParent=1;resizeParentMax=0;resizeLast=0;collapsible=1;marginBottom=0;fillColor=#333333;" parent="oDDhhZ-fotDQM3jQQCFt-1" vertex="1">
                    <mxGeometry x="400" y="1732" width="160" height="74" as="geometry"/>
                </mxCell>
                <mxCell id="46XkXmEAlNjn_4T0TYDh-22" value="" style="line;strokeWidth=1;fillColor=none;align=left;verticalAlign=middle;spacingTop=-1;spacingLeft=3;spacingRight=3;rotatable=0;labelPosition=right;points=[];portConstraint=eastwest;" parent="46XkXmEAlNjn_4T0TYDh-21" vertex="1">
                    <mxGeometry y="25" width="160" height="14" as="geometry"/>
                </mxCell>
                <mxCell id="46XkXmEAlNjn_4T0TYDh-23" value="+Boot&#10;+shotdown" style="text;strokeColor=none;fillColor=none;align=left;verticalAlign=top;spacingLeft=4;spacingRight=4;overflow=hidden;rotatable=0;points=[[0,0.5],[1,0.5]];portConstraint=eastwest;" parent="46XkXmEAlNjn_4T0TYDh-21" vertex="1">
                    <mxGeometry y="39" width="160" height="35" as="geometry"/>
                </mxCell>
                <mxCell id="46XkXmEAlNjn_4T0TYDh-26" value="&lt;font style=&quot;font-size: 20px&quot;&gt;通过 facede 来筛选出不同的系统&lt;br&gt;不同的system 存在 facade 的结构体中，来实现调用&lt;br&gt;&lt;/font&gt;" style="text;html=1;strokeColor=none;fillColor=none;align=center;verticalAlign=middle;whiteSpace=wrap;rounded=0;fontSize=15;" parent="oDDhhZ-fotDQM3jQQCFt-1" vertex="1">
                    <mxGeometry x="87" y="340" width="503" height="51" as="geometry"/>
                </mxCell>
            </root>
        </mxGraphModel>
    </diagram>
</mxfile>